<svg xmlns="http://www.w3.org/2000/svg" width="1080" height="1080" viewBox="0 0 1080 1080">
  <defs>
    <style>
      .cls-1 {
        fill: #e06c2b;
      }

      .cls-2 {
        fill: #fff;
      }
    </style>
  </defs>
  <g id="Layer_4" data-name="Layer 4">
    <rect class="cls-1" x="129.45" y="129.45" width="821.11" height="821.11" rx="170.55"/>
  </g>
  <g id="Layer_2" data-name="Layer 2">
    <g>
      <g>
        <path class="cls-2" d="M256.23,848.88q-13.46,0-19.38-7.39t-3.55-21.6l12-76.79h22.34l-12,76.64a15.78,15.78,0,0,0,.07,6.29,5.7,5.7,0,0,0,2.89,3.77,11.49,11.49,0,0,0,5.47,1.18,22,22,0,0,0,3.18-.22c1-.15,2.05-.27,3-.37l-2.81,17.16a51.16,51.16,0,0,1-5.33,1A44.79,44.79,0,0,1,256.23,848.88Z"/>
        <path class="cls-2" d="M315.71,848.88q-11.25,0-19.24-4.06a28.43,28.43,0,0,1-12.2-11.62,35.48,35.48,0,0,1-4.22-17.6,46,46,0,0,1,3.33-18,38.09,38.09,0,0,1,9.25-13.39A39.79,39.79,0,0,1,305.94,776a44.93,44.93,0,0,1,15.68-2.74q11.25,0,19.24,4.07A29,29,0,0,1,353.14,789a35,35,0,0,1,4.29,17.6,44.91,44.91,0,0,1-3.41,18,39.66,39.66,0,0,1-9.24,13.32,39.11,39.11,0,0,1-13.24,8.21A45.4,45.4,0,0,1,315.71,848.88Zm.59-16.57a14.9,14.9,0,0,0,9.91-3.47,22.67,22.67,0,0,0,6.44-9.47A37.39,37.39,0,0,0,334.94,806q0-7.85-3.7-11.91T321.18,790a15.37,15.37,0,0,0-10.06,3.4,21.54,21.54,0,0,0-6.36,9.33,38.58,38.58,0,0,0-2.22,13.61q0,7.7,3.7,11.83T316.3,832.31Z"/>
        <path class="cls-2" d="M360.83,874l15.68-99.13h21.9l-1.93,12.43h-1a32.62,32.62,0,0,1,6.43-7.55,25.83,25.83,0,0,1,8.59-4.88,31.48,31.48,0,0,1,10.13-1.63,26.4,26.4,0,0,1,14.28,3.85A25.29,25.29,0,0,1,444.35,788a38.73,38.73,0,0,1,3.32,16.65,55.45,55.45,0,0,1-4.43,22.63,37.16,37.16,0,0,1-12.65,15.83,33,33,0,0,1-19.46,5.77,27.57,27.57,0,0,1-14.35-3.69,19.89,19.89,0,0,1-8.73-11h1.48L383.17,874Zm45.71-41.73a15.14,15.14,0,0,0,10.07-3.47,22.09,22.09,0,0,0,6.36-9.47A38.3,38.3,0,0,0,425.19,806q0-7.85-3.63-11.91t-10-4.07a15.46,15.46,0,0,0-10,3.4,21.26,21.26,0,0,0-6.44,9.33,38.58,38.58,0,0,0-2.22,13.61q0,7.7,3.63,11.83T406.54,832.31Z"/>
        <path class="cls-2" d="M482.74,848.88q-13.47,0-19.39-7.39t-3.55-21.6l12-76.79h22.34l-12,76.64a15.57,15.57,0,0,0,.08,6.29,5.65,5.65,0,0,0,2.88,3.77,11.54,11.54,0,0,0,5.48,1.18,22.25,22.25,0,0,0,3.18-.22c1-.15,2-.27,3-.37L494,847.55a50.69,50.69,0,0,1-5.33,1A44.64,44.64,0,0,1,482.74,848.88Z"/>
        <path class="cls-2" d="M542.21,848.88q-11.25,0-19.23-4.06a28.4,28.4,0,0,1-12.21-11.62,35.48,35.48,0,0,1-4.22-17.6,46,46,0,0,1,3.33-18,38.09,38.09,0,0,1,9.25-13.39A39.79,39.79,0,0,1,532.44,776a45,45,0,0,1,15.69-2.74q11.24,0,19.23,4.07A28.86,28.86,0,0,1,579.64,789a35,35,0,0,1,4.29,17.6,45.08,45.08,0,0,1-3.4,18,39.68,39.68,0,0,1-9.25,13.32A39.11,39.11,0,0,1,558,846.15,45.36,45.36,0,0,1,542.21,848.88Zm.59-16.57a14.89,14.89,0,0,0,9.91-3.47,22.67,22.67,0,0,0,6.44-9.47A37.17,37.17,0,0,0,561.44,806q0-7.85-3.7-11.91T547.68,790a15.38,15.38,0,0,0-10.06,3.4,21.54,21.54,0,0,0-6.36,9.33A38.58,38.58,0,0,0,529,816.34q0,7.7,3.7,11.83T542.8,832.31Z"/>
        <path class="cls-2" d="M616.62,848.88a24.86,24.86,0,0,1-12.35-3.1,25.62,25.62,0,0,1-8.95-8.21,20,20,0,0,1-3.4-11.32q0-7.69,4.36-12.58t13.39-7.17q9-2.29,22.93-2.29h12l-1.93,11.53h-9.61a65.22,65.22,0,0,0-11.39.82q-4.44.81-6.29,2.81a7.6,7.6,0,0,0-1.85,5.4,8.13,8.13,0,0,0,3,6.81,11.81,11.81,0,0,0,7.47,2.36,17.23,17.23,0,0,0,7.84-1.7,15,15,0,0,0,5.7-5,17.5,17.5,0,0,0,2.88-7.77l2.67-17.16q1-6.06-2.15-9.32t-10.72-3.25a45.37,45.37,0,0,0-12.65,1.77A56,56,0,0,0,605.08,797l-4.43-15a38.6,38.6,0,0,1,9-4.66,62.31,62.31,0,0,1,11.39-3,72.11,72.11,0,0,1,12.14-1q12.57,0,19.67,4.59a22.7,22.7,0,0,1,9.62,12.28,37.67,37.67,0,0,1,1,17.46L657,847.41H636.3l2.37-14.8H640a26.89,26.89,0,0,1-5.84,9.25,22.73,22.73,0,0,1-8.14,5.32A26.3,26.3,0,0,1,616.62,848.88Z"/>
        <path class="cls-2" d="M703,848.88A26.35,26.35,0,0,1,688.75,845a25.26,25.26,0,0,1-9.47-10.88A38.5,38.5,0,0,1,676,817.52a55.54,55.54,0,0,1,4.44-22.64A37.28,37.28,0,0,1,693,779.05a33,33,0,0,1,19.46-5.77,26.78,26.78,0,0,1,14.2,3.78,20.2,20.2,0,0,1,8.73,10.87h-1.19l7.1-44.83h22.34L747.11,847.41H725.22l2.07-12.73h.89a34.42,34.42,0,0,1-6.59,7.7,25.74,25.74,0,0,1-8.5,4.88A30.88,30.88,0,0,1,703,848.88Zm9-16.57a15.07,15.07,0,0,0,10.14-3.47,22.41,22.41,0,0,0,6.28-9.47A38.3,38.3,0,0,0,730.69,806q0-7.85-3.55-11.91T717.08,790a15.48,15.48,0,0,0-10,3.4,21.24,21.24,0,0,0-6.43,9.33,38.58,38.58,0,0,0-2.22,13.61q0,7.7,3.62,11.83T712.05,832.31Z"/>
      </g>
      <g>
        <g>
          <path class="cls-2" d="M728.84,332.55l-44.64-7.3c-5.52-44.68,12.95-101.42,91.57-126.08S853.9,227.7,853.9,227.7s5.33,24.11-39.34,42.08S749.89,267,728.84,332.55Z"/>
          <path class="cls-2" d="M720.9,499.13A225.52,225.52,0,0,1,733.11,519a306.36,306.36,0,0,1,35.36,103c4.87,32.71,4.78,70-17.15,82.19-31.33,17.38-68.89-42.79-85.72-74-12.94-24-30.65-45.18-52.6-61.33-28.51-21-70.32-40.09-123.49-32.57-66.87,9.45-106.07,53-126,84.1A177.25,177.25,0,0,0,344.28,662c-6,18.81-23.84,58.46-64.51,46.33-52.77-15.75-37-103.55-32.27-121.66s41.68-146.65,181.66-186.46S676.12,435.09,720.9,499.13Z"/>
          <ellipse class="cls-2" cx="325.51" cy="424.73" rx="41.28" ry="41.93" transform="translate(-73.67 68.35) rotate(-10.78)"/>
          <path class="cls-2" d="M622.83,340.27l49.28-18.38c-3.76-52.21-37.59-112.78-132.82-123.22s-82.7,50.12-82.7,50.12-.66,28.7,54.33,39.15S584.08,270.21,622.83,340.27Z"/>
          <path class="cls-2" d="M807,403.85c-12.95-29.66-42.19-32.16-42.19-32.16-28.4-51.8-75.6-53.05-75.6-53.05-83.54-8.77-109,65.58-109,65.58C553.07,446,590.25,531.66,708,509.94S820,433.5,807,403.85Zm-105.82-5.57c-11.69,0-21.16-8.73-21.16-19.49s9.47-19.49,21.16-19.49,21.17,8.72,21.17,19.49S712.9,398.28,701.21,398.28Z"/>
        </g>
        <path class="cls-2" d="M382.46,422.29s-22.43-77.36-81.72-45.4S276,496,336.33,469.85,382.46,422.29,382.46,422.29Z"/>
      </g>
    </g>
  </g>
</svg>
