<svg xmlns="http://www.w3.org/2000/svg" width="1080" height="1080" viewBox="0 0 1080 1080">
  <defs>
    <style>
      .cls-1 {
        fill: #e06c2b;
      }

      .cls-2 {
        fill: #fff;
      }
    </style>
  </defs>
  <g id="Layer_4" data-name="Layer 4">
    <rect class="cls-1" x="129.45" y="129.45" width="821.11" height="821.11" rx="170.55"/>
  </g>
  <g id="Layer_2" data-name="Layer 2">
    <g>
      <g>
        <path class="cls-2" d="M733.65,412.6l-47.77-7.82c-5.9-47.8,13.86-108.5,98-134.88s83.58,30.52,83.58,30.52,5.71,25.79-42.08,45S756.16,342.45,733.65,412.6Z"/>
        <path class="cls-2" d="M725.15,590.81a242.6,242.6,0,0,1,13.07,21.24A327.72,327.72,0,0,1,776,722.29c5.21,35,5.12,74.92-18.34,87.93C724.18,828.82,684,764.44,666,731.08c-13.85-25.66-32.8-48.34-56.28-65.62-30.5-22.44-75.24-42.88-132.12-34.84-71.54,10.11-113.48,56.76-134.75,90a189.39,189.39,0,0,0-20.62,44.49c-6.45,20.13-25.51,62.55-69,49.57-56.46-16.85-39.61-110.78-34.53-130.16S263.27,527.61,413,485,677.24,522.3,725.15,590.81Z"/>
        <ellipse class="cls-2" cx="302.13" cy="511.22" rx="44.17" ry="44.86" transform="translate(-90.25 65.5) rotate(-10.78)"/>
        <path class="cls-2" d="M620.22,420.85,673,401.19c-4-55.86-40.22-120.66-142.11-131.83S442.37,323,442.37,323s-.71,30.69,58.13,41.88S578.77,345.9,620.22,420.85Z"/>
        <path class="cls-2" d="M817.29,488.87c-13.85-31.72-45.13-34.4-45.13-34.4-30.39-55.42-80.88-56.76-80.88-56.76-89.38-9.38-116.64,70.16-116.64,70.16-29,66.14,10.73,157.75,136.75,134.51S831.15,520.6,817.29,488.87Zm-113.2-5.95c-12.51,0-22.64-9.34-22.64-20.86s10.13-20.85,22.64-20.85,22.64,9.34,22.64,20.85S716.59,482.92,704.09,482.92Z"/>
      </g>
      <path class="cls-2" d="M363.07,508.61s-24-82.77-87.44-48.58-26.44,127.46,38.08,99.46S363.07,508.61,363.07,508.61Z"/>
    </g>
  </g>
</svg>
