<svg xmlns="http://www.w3.org/2000/svg" width="1080" height="1080" viewBox="0 0 1080 1080">
  <defs>
    <style>
      .cls-1 {
        fill: #e06c2b;
      }
    </style>
  </defs>
  <g id="Layer_2" data-name="Layer 2">
    <g>
      <path class="cls-1" d="M260.43,865.45q-14.06,0-20.24-7.73t-3.71-22.55L249,755h23.33l-12.52,80a16.4,16.4,0,0,0,.08,6.57,5.93,5.93,0,0,0,3,3.94,12.1,12.1,0,0,0,5.72,1.23,22.67,22.67,0,0,0,3.32-.23c1.08-.15,2.14-.28,3.17-.39l-2.94,17.93q-2.62.62-5.56,1A47,47,0,0,1,260.43,865.45Z"/>
      <path class="cls-1" d="M322.54,865.45q-11.75,0-20.09-4.25a29.59,29.59,0,0,1-12.74-12.13,37,37,0,0,1-4.41-18.39,48,48,0,0,1,3.48-18.77,39.65,39.65,0,0,1,9.66-14,41.34,41.34,0,0,1,13.9-8.57,46.72,46.72,0,0,1,16.38-2.86q11.73,0,20.08,4.25a30,30,0,0,1,12.82,12.13,36.51,36.51,0,0,1,4.48,18.38,47,47,0,0,1-3.55,18.85A41.4,41.4,0,0,1,352.9,854a40.68,40.68,0,0,1-13.83,8.58A47.38,47.38,0,0,1,322.54,865.45Zm.61-17.31a15.61,15.61,0,0,0,10.36-3.63,23.61,23.61,0,0,0,6.72-9.89,39,39,0,0,0,2.39-14q0-8.19-3.86-12.43T328.25,804a16,16,0,0,0-10.5,3.55,22.52,22.52,0,0,0-6.65,9.73,40.47,40.47,0,0,0-2.31,14.22q0,8,3.86,12.36T323.15,848.14Z"/>
      <path class="cls-1" d="M369.66,891.71,386,788.2H408.9l-2,13h-1.08a33.7,33.7,0,0,1,6.72-7.88,26.56,26.56,0,0,1,9-5.1,32.9,32.9,0,0,1,10.58-1.7,27.45,27.45,0,0,1,14.91,4,26.33,26.33,0,0,1,9.89,11.35,40.22,40.22,0,0,1,3.48,17.38,58,58,0,0,1-4.64,23.64,38.78,38.78,0,0,1-13.21,16.53,34.39,34.39,0,0,1-20.31,6,28.7,28.7,0,0,1-15-3.87,20.66,20.66,0,0,1-9.12-11.43h1.55L393,891.71Zm47.74-43.57a15.78,15.78,0,0,0,10.5-3.63,23,23,0,0,0,6.65-9.89,40.11,40.11,0,0,0,2.31-14q0-8.19-3.78-12.43T422.65,804a16.09,16.09,0,0,0-10.43,3.55,22.3,22.3,0,0,0-6.72,9.73,40.46,40.46,0,0,0-2.32,14.22q0,8,3.79,12.36T417.4,848.14Z"/>
      <path class="cls-1" d="M497,865.45q-14.06,0-20.24-7.73T473,835.17L485.53,755h23.33l-12.52,80a16.4,16.4,0,0,0,.08,6.57,5.93,5.93,0,0,0,3,3.94,12.1,12.1,0,0,0,5.72,1.23,22.67,22.67,0,0,0,3.32-.23c1.08-.15,2.14-.28,3.17-.39l-2.94,17.93q-2.62.62-5.56,1A47,47,0,0,1,497,865.45Z"/>
      <path class="cls-1" d="M559.07,865.45q-11.75,0-20.09-4.25a29.59,29.59,0,0,1-12.74-12.13,37,37,0,0,1-4.41-18.39,48,48,0,0,1,3.48-18.77,39.76,39.76,0,0,1,9.65-14,41.48,41.48,0,0,1,13.91-8.57,46.72,46.72,0,0,1,16.38-2.86q11.73,0,20.08,4.25a30,30,0,0,1,12.82,12.13,36.51,36.51,0,0,1,4.48,18.38,47,47,0,0,1-3.55,18.85,41.28,41.28,0,0,1-9.66,13.9,40.64,40.64,0,0,1-13.82,8.58A47.38,47.38,0,0,1,559.07,865.45Zm.61-17.31A15.61,15.61,0,0,0,570,844.51a23.61,23.61,0,0,0,6.72-9.89,39,39,0,0,0,2.39-14q0-8.19-3.86-12.43T564.78,804a16,16,0,0,0-10.5,3.55,22.52,22.52,0,0,0-6.65,9.73,40.47,40.47,0,0,0-2.31,14.22q0,8,3.86,12.36T559.68,848.14Z"/>
      <path class="cls-1" d="M636.78,865.45a26,26,0,0,1-12.9-3.25,26.69,26.69,0,0,1-9.35-8.57A20.87,20.87,0,0,1,611,841.81q0-8,4.55-13.13t14-7.5q9.42-2.38,23.94-2.39H666l-2,12.05h-10a67.71,67.71,0,0,0-11.9.85c-3.09.57-5.28,1.54-6.57,2.93a8,8,0,0,0-1.93,5.64,8.49,8.49,0,0,0,3.17,7.11,12.27,12.27,0,0,0,7.8,2.47,18.14,18.14,0,0,0,8.19-1.77,15.75,15.75,0,0,0,5.95-5.26,18.35,18.35,0,0,0,3-8.11l2.78-17.92q1.08-6.33-2.24-9.73t-11.2-3.4a47.52,47.52,0,0,0-13.21,1.85,58.59,58.59,0,0,0-13,5.72l-4.64-15.61a40.54,40.54,0,0,1,9.43-4.86,64.72,64.72,0,0,1,11.89-3.17,75.26,75.26,0,0,1,12.67-1.08q13.13,0,20.55,4.79a23.71,23.71,0,0,1,10,12.82,39.3,39.3,0,0,1,1.08,18.23L679,863.9H657.33l2.47-15.45h1.39a28,28,0,0,1-6.11,9.66,23.77,23.77,0,0,1-8.49,5.56A27.71,27.71,0,0,1,636.78,865.45Z"/>
      <path class="cls-1" d="M727,865.45a27.5,27.5,0,0,1-14.91-4,26.28,26.28,0,0,1-9.88-11.36,40.19,40.19,0,0,1-3.48-17.38,57.93,57.93,0,0,1,4.63-23.63,38.88,38.88,0,0,1,13.21-16.54,34.49,34.49,0,0,1,20.32-6,28,28,0,0,1,14.83,3.94,21.09,21.09,0,0,1,9.12,11.35H759.6L767,755h23.33L773,863.9H750.18l2.16-13.29h.93a36,36,0,0,1-6.88,8,26.86,26.86,0,0,1-8.88,5.1A32.21,32.21,0,0,1,727,865.45Zm9.43-17.31A15.72,15.72,0,0,0,747,844.51a23.37,23.37,0,0,0,6.57-9.89,40.11,40.11,0,0,0,2.31-14q0-8.19-3.7-12.43T741.68,804a16.09,16.09,0,0,0-10.43,3.55,22.3,22.3,0,0,0-6.72,9.73,40.46,40.46,0,0,0-2.32,14.22q0,8,3.79,12.36T736.43,848.14Z"/>
    </g>
    <g>
      <g>
        <path class="cls-1" d="M754,326.26l-46.62-7.63C701.58,272,720.87,212.72,803,187s81.58,29.8,81.58,29.8,5.57,25.17-41.07,43.94S775.94,257.79,754,326.26Z"/>
        <path class="cls-1" d="M745.67,500.2a236.51,236.51,0,0,1,12.75,20.74,319.78,319.78,0,0,1,36.92,107.6c5.09,34.16,5,73.13-17.9,85.83-32.72,18.15-72-44.69-89.52-77.25-13.52-25-32-47.18-54.93-64-29.78-21.9-73.44-41.85-129-34-69.82,9.87-110.76,55.41-131.53,87.83a185.56,185.56,0,0,0-20.13,43.43c-6.29,19.64-24.89,61-67.37,48.38-55.1-16.45-38.65-108.13-33.69-127S294.84,438.51,441,396.94,698.9,433.33,745.67,500.2Z"/>
        <ellipse class="cls-1" cx="332.77" cy="422.52" rx="43.11" ry="43.79" transform="translate(-73.12 69.66) rotate(-10.78)"/>
        <path class="cls-1" d="M643.25,334.31l51.47-19.19C690.8,260.6,655.47,197.35,556,186.45s-86.37,52.34-86.37,52.34-.69,30,56.74,40.88S602.79,261.15,643.25,334.31Z"/>
        <path class="cls-1" d="M835.61,400.71c-13.52-31-44.06-33.59-44.06-33.59-29.66-54.08-78.94-55.39-78.94-55.39-87.24-9.16-113.85,68.48-113.85,68.48-28.35,64.55,10.47,154,133.47,131.29S849.13,431.68,835.61,400.71Zm-110.5-5.82c-12.21,0-22.1-9.11-22.1-20.35s9.89-20.36,22.1-20.36,22.1,9.12,22.1,20.36S737.31,394.89,725.11,394.89Z"/>
      </g>
      <path class="cls-1" d="M392.25,420s-23.42-80.78-85.35-47.41S281.09,497,344.07,469.63,392.25,420,392.25,420Z"/>
    </g>
  </g>
</svg>
